<svg width="48" height="48" viewBox="0 0 48 48" fill="none" xmlns="http://www.w3.org/2000/svg">
  <path d="M16 20C18.2091 20 20 18.2091 20 16C20 13.7909 18.2091 12 16 12C13.7909 12 12 13.7909 12 16C12 18.2091 13.7909 20 16 20Z" stroke="currentColor" stroke-width="2"/>
  <path d="M32 36C34.2091 36 36 34.2091 36 32C36 29.7909 34.2091 28 32 28C29.7909 28 28 29.7909 28 32C28 34.2091 29.7909 36 32 36Z" stroke="currentColor" stroke-width="2"/>
  <path d="M32 20C34.2091 20 36 18.2091 36 16C36 13.7909 34.2091 12 32 12C29.7909 12 28 13.7909 28 16C28 18.2091 29.7909 20 32 20Z" stroke="currentColor" stroke-width="2"/>
  <path d="M16 36C18.2091 36 20 34.2091 20 32C20 29.7909 18.2091 28 16 28C13.7909 28 12 29.7909 12 32C12 34.2091 13.7909 36 16 36Z" stroke="currentColor" stroke-width="2"/>
  <path d="M20 16H28" stroke="currentColor" stroke-width="2"/>
  <path d="M20 32H28" stroke="currentColor" stroke-width="2"/>
  <path d="M16 20V28" stroke="currentColor" stroke-width="2"/>
  <path d="M32 20V28" stroke="currentColor" stroke-width="2"/>
</svg> 