<svg width="343" height="243" viewBox="0 0 343 243" fill="none" xmlns="http://www.w3.org/2000/svg">
<rect width="343" height="243" fill="white"/>
<path d="M26.1356 235.706V227.272H27.6494L30.3791 234.005H30.4142L33.1497 227.272H34.6578V235.706H33.4654V229.481H33.4244L30.8818 235.706H29.9115L27.3689 229.481H27.328V235.706H26.1356ZM38.9021 235.829C37.1369 235.829 35.9854 234.607 35.9854 232.632V232.62C35.9854 230.656 37.1486 229.44 38.8963 229.44C40.6498 229.44 41.8188 230.65 41.8188 232.62V232.632C41.8188 234.613 40.6615 235.829 38.9021 235.829ZM38.908 234.771C39.8958 234.771 40.5271 233.988 40.5271 232.632V232.62C40.5271 231.276 39.8841 230.498 38.8963 230.498C37.926 230.498 37.2772 231.276 37.2772 232.62V232.632C37.2772 233.994 37.9201 234.771 38.908 234.771ZM42.9945 235.706V229.557H44.257V230.487H44.2863C44.6077 229.861 45.239 229.44 46.1684 229.44C47.5186 229.44 48.296 230.311 48.296 231.726V235.706H47.0276V231.965C47.0276 231.042 46.5951 230.522 45.7183 230.522C44.8299 230.522 44.257 231.165 44.257 232.123V235.706H42.9945Z" fill="#A0AEC0"/>
<path d="M76.1249 235.847C74.2311 235.847 72.9802 234.946 72.875 233.462L72.8691 233.374H74.1434L74.1551 233.45C74.272 234.227 75.0494 234.713 76.1775 234.713C77.3056 234.713 78.0187 234.204 78.0187 233.415V233.409C78.0187 232.731 77.5569 232.363 76.4405 232.117L75.5228 231.924C73.8687 231.574 73.0679 230.814 73.0679 229.563V229.557C73.0737 228.119 74.3421 227.131 76.1249 227.131C77.8843 227.131 79.0884 228.09 79.176 229.505L79.1819 229.604H77.9077L77.9018 229.522C77.7849 228.739 77.1069 228.265 76.1074 228.265C75.0611 228.271 74.3947 228.768 74.3947 229.505V229.51C74.3947 230.142 74.874 230.528 75.9262 230.755L76.8497 230.948C78.5915 231.317 79.3397 232.024 79.3397 233.327V233.333C79.3397 234.87 78.1239 235.847 76.1249 235.847ZM82.6605 235.829C81.3103 235.829 80.5387 234.958 80.5387 233.544V229.557H81.8013V233.298C81.8013 234.227 82.2338 234.742 83.1106 234.742C83.9991 234.742 84.5719 234.105 84.5719 233.146V229.557H85.8403V235.706H84.5719V234.783H84.5427C84.2212 235.402 83.5957 235.829 82.6605 235.829ZM87.2907 235.706V229.557H88.5532V230.487H88.5824C88.9039 229.861 89.5352 229.44 90.4646 229.44C91.8148 229.44 92.5922 230.311 92.5922 231.726V235.706H91.3238V231.965C91.3238 231.042 90.8913 230.522 90.0145 230.522C89.126 230.522 88.5532 231.165 88.5532 232.123V235.706H87.2907Z" fill="#A0AEC0"/>
<path d="M119.455 235.706V228.4H116.871V227.272H123.342V228.4H120.764V235.706H119.455ZM125.429 235.829C124.079 235.829 123.308 234.958 123.308 233.544V229.557H124.57V233.298C124.57 234.227 125.003 234.742 125.88 234.742C126.768 234.742 127.341 234.105 127.341 233.146V229.557H128.609V235.706H127.341V234.783H127.312C126.99 235.402 126.365 235.829 125.429 235.829ZM132.684 235.829C130.878 235.829 129.785 234.596 129.785 232.655V232.649C129.785 230.726 130.895 229.44 132.62 229.44C134.344 229.44 135.402 230.679 135.402 232.527V232.953H131.047C131.071 234.116 131.708 234.794 132.713 234.794C133.461 234.794 133.958 234.409 134.116 233.947L134.134 233.9H135.332L135.32 233.964C135.121 234.941 134.175 235.829 132.684 235.829ZM132.626 230.475C131.807 230.475 131.176 231.03 131.065 232.059H134.151C134.046 230.995 133.45 230.475 132.626 230.475Z" fill="#A0AEC0"/>
<path d="M162.229 235.706L159.956 227.272H161.318L162.89 233.883H162.913L164.696 227.272H165.935L167.718 233.883H167.747L169.32 227.272H170.681L168.402 235.706H167.145L165.333 229.347H165.304L163.486 235.706H162.229ZM173.728 235.829C171.921 235.829 170.828 234.596 170.828 232.655V232.649C170.828 230.726 171.939 229.44 173.663 229.44C175.388 229.44 176.446 230.679 176.446 232.527V232.953H172.091C172.114 234.116 172.751 234.794 173.757 234.794C174.505 234.794 175.002 234.409 175.16 233.947L175.177 233.9H176.375L176.364 233.964C176.165 234.941 175.218 235.829 173.728 235.829ZM173.669 230.475C172.851 230.475 172.22 231.03 172.108 232.059H175.195C175.09 230.995 174.493 230.475 173.669 230.475ZM179.924 235.829C178.358 235.829 177.352 234.59 177.352 232.632V232.626C177.352 230.668 178.369 229.44 179.913 229.44C180.783 229.44 181.485 229.879 181.853 230.603H181.876V227.272H183.145V235.706H181.876V234.666H181.853C181.485 235.385 180.807 235.829 179.924 235.829ZM180.257 234.742C181.21 234.742 181.882 233.912 181.882 232.632V232.626C181.882 231.352 181.204 230.522 180.257 230.522C179.264 230.522 178.644 231.328 178.644 232.626V232.632C178.644 233.941 179.258 234.742 180.257 234.742Z" fill="#A0AEC0"/>
<path d="M210.682 235.706V228.4H208.098V227.272H214.569V228.4H211.991V235.706H210.682ZM215.733 235.706V227.272H216.995V230.568H217.025C217.352 229.855 218.013 229.44 218.93 229.44C220.245 229.44 221.11 230.422 221.11 231.907V235.706H219.848V232.147C219.848 231.13 219.334 230.522 218.445 230.522C217.574 230.522 216.995 231.188 216.995 232.147V235.706H215.733ZM224.63 235.829C223.28 235.829 222.508 234.958 222.508 233.544V229.557H223.771V233.298C223.771 234.227 224.203 234.742 225.08 234.742C225.969 234.742 226.541 234.105 226.541 233.146V229.557H227.81V235.706H226.541V234.783H226.512C226.191 235.402 225.565 235.829 224.63 235.829Z" fill="#A0AEC0"/>
<path d="M252.703 235.706V227.272H257.969V228.4H254.012V231.071H257.636V232.176H254.012V235.706H252.703ZM259.157 235.706V229.557H260.419V230.609H260.448C260.647 229.89 261.161 229.44 261.863 229.44C262.044 229.44 262.202 229.47 262.301 229.487V230.662C262.202 230.621 261.98 230.592 261.734 230.592C260.922 230.592 260.419 231.124 260.419 232.041V235.706H259.157ZM263.968 228.61C263.559 228.61 263.231 228.283 263.231 227.886C263.231 227.482 263.559 227.155 263.968 227.155C264.383 227.155 264.704 227.482 264.704 227.886C264.704 228.283 264.383 228.61 263.968 228.61ZM263.337 235.706V229.557H264.599V235.706H263.337Z" fill="#A0AEC0"/>
<path d="M292.692 235.847C290.798 235.847 289.547 234.946 289.442 233.462L289.436 233.374H290.711L290.722 233.45C290.839 234.227 291.617 234.713 292.745 234.713C293.873 234.713 294.586 234.204 294.586 233.415V233.409C294.586 232.731 294.124 232.363 293.008 232.117L292.09 231.924C290.436 231.574 289.635 230.814 289.635 229.563V229.557C289.641 228.119 290.909 227.131 292.692 227.131C294.451 227.131 295.656 228.09 295.743 229.505L295.749 229.604H294.475L294.469 229.522C294.352 228.739 293.674 228.265 292.674 228.265C291.628 228.271 290.962 228.768 290.962 229.505V229.51C290.962 230.142 291.441 230.528 292.493 230.755L293.417 230.948C295.159 231.317 295.907 232.024 295.907 233.327V233.333C295.907 234.87 294.691 235.847 292.692 235.847ZM298.941 235.817C297.714 235.817 296.89 235.063 296.89 233.959V233.947C296.89 232.877 297.72 232.223 299.175 232.135L300.847 232.036V231.574C300.847 230.896 300.408 230.487 299.625 230.487C298.894 230.487 298.444 230.831 298.339 231.322L298.328 231.375H297.135L297.141 231.311C297.229 230.253 298.146 229.44 299.66 229.44C301.162 229.44 302.115 230.235 302.115 231.469V235.706H300.847V234.736H300.823C300.467 235.397 299.754 235.817 298.941 235.817ZM298.164 233.929C298.164 234.467 298.608 234.806 299.286 234.806C300.175 234.806 300.847 234.204 300.847 233.403V232.924L299.345 233.018C298.585 233.064 298.164 233.397 298.164 233.918V233.929ZM305.699 235.829C304.483 235.829 303.899 235.315 303.899 234.087V230.563H303.016V229.557H303.899V227.956H305.19V229.557H306.342V230.563H305.19V234.011C305.19 234.637 305.471 234.824 306.003 234.824C306.137 234.824 306.248 234.812 306.342 234.8V235.776C306.196 235.8 305.956 235.829 305.699 235.829Z" fill="#A0AEC0"/>
<line x1="25.8569" y1="154.388" x2="294.596" y2="154.388" stroke="#EDF2F7" stroke-width="0.997569" stroke-linecap="round" stroke-dasharray="3.99 3.99"/>
<line x1="25.8569" y1="108.507" x2="294.596" y2="108.507" stroke="#EDF2F7" stroke-width="0.997569" stroke-linecap="round"/>
<line x1="25.8569" y1="62.6258" x2="294.596" y2="62.6259" stroke="#EDF2F7" stroke-width="0.997569" stroke-linecap="round" stroke-dasharray="3.99 3.99"/>
<line x1="25.8569" y1="16.7446" x2="294.596" y2="16.7446" stroke="#EDF2F7" stroke-width="0.997569" stroke-linecap="round"/>
<path d="M25.3582 112.006C27.3488 109.512 32.3255 111.008 34.3162 109.014C36.3069 107.019 46.2603 84.0781 52.7299 85.0755C57.6488 85.8338 60.6927 111.008 67.66 114.001C71.1437 115.497 82.0924 104.525 86.0738 104.026C90.0551 103.528 96.5248 108.016 100.009 108.016C107.474 107.019 104.488 69.1168 111.455 60.6388C119.915 51.662 127.38 55.153 131.859 50.1659C136.338 45.1788 141.813 21.7394 147.785 22.2382C159.231 25.2304 160.226 121.481 173.664 129.461C182.622 134.78 191.58 126.409 200.04 129.461C212.482 133.949 213.477 161.37 222.435 163.864C235.374 166.856 239.853 93.6455 248.812 85.5664C253.788 81.078 263.742 80.5793 272.7 80.5793C280.165 80.5793 290.118 70.1064 295.592 70.1064" stroke="#3E52C1" stroke-width="2.49392" stroke-linecap="round"/>
<path d="M299.074 70.1065C299.074 72.3118 297.29 74.096 295.095 74.096C292.899 74.096 291.116 72.3118 291.116 70.1065C291.116 67.9012 292.899 66.117 295.095 66.117C297.29 66.117 299.074 67.9012 299.074 70.1065Z" fill="white" stroke="#16192C" stroke-width="1.99514"/>
<path d="M25.3582 191.02C25.3582 190.101 25.3582 189.641 25.5068 189.278C25.7094 188.783 26.1025 188.39 26.5977 188.187C26.9609 188.038 27.4206 188.038 28.3399 188.038C29.2593 188.038 29.7189 188.038 30.0821 188.187C30.5774 188.39 30.9704 188.783 31.1731 189.278C31.3217 189.641 31.3217 190.101 31.3217 191.02V199.795H25.3582V191.02Z" fill="#FAFAFA"/>
<path d="M33.3083 186.122C33.3083 185.202 33.3083 184.743 33.4569 184.379C33.6596 183.884 34.0527 183.491 34.5479 183.288C34.9111 183.14 35.3708 183.14 36.2901 183.14C37.2095 183.14 37.6691 183.14 38.0323 183.288C38.5275 183.491 38.9206 183.884 39.1233 184.379C39.2719 184.743 39.2719 185.202 39.2719 186.122V199.795H33.3083V186.122Z" fill="#FAFAFA"/>
<path d="M41.2588 173.385C41.2588 172.466 41.2588 172.006 41.4074 171.643C41.61 171.148 42.0031 170.755 42.4984 170.552C42.8615 170.403 43.3212 170.403 44.2406 170.403C45.1599 170.403 45.6196 170.403 45.9827 170.552C46.478 170.755 46.8711 171.148 47.0737 171.643C47.2223 172.006 47.2223 172.466 47.2223 173.385V199.795H41.2588V173.385Z" fill="#FAFAFA"/>
<path d="M49.2107 178.284C49.2107 177.364 49.2107 176.905 49.3593 176.542C49.5619 176.046 49.955 175.653 50.4503 175.451C50.8134 175.302 51.2731 175.302 52.1925 175.302C53.1118 175.302 53.5715 175.302 53.9346 175.451C54.4299 175.653 54.823 176.046 55.0256 176.542C55.1742 176.905 55.1742 177.364 55.1742 178.284V199.795H49.2107V178.284Z" fill="#FAFAFA"/>
<path d="M57.1599 183.182C57.1599 182.263 57.1599 181.803 57.3085 181.44C57.5112 180.945 57.9042 180.552 58.3995 180.349C58.7627 180.201 59.2223 180.201 60.1417 180.201C61.061 180.201 61.5207 180.201 61.8839 180.349C62.3791 180.552 62.7722 180.945 62.9748 181.44C63.1234 181.803 63.1234 182.263 63.1234 183.182V199.795H57.1599V183.182Z" fill="#FAFAFA"/>
<path d="M65.1104 191.02C65.1104 190.101 65.1104 189.641 65.259 189.278C65.4616 188.783 65.8547 188.39 66.3499 188.187C66.7131 188.038 67.1728 188.038 68.0921 188.038C69.0115 188.038 69.4711 188.038 69.8343 188.187C70.3296 188.39 70.7226 188.783 70.9253 189.278C71.0739 189.641 71.0739 190.101 71.0739 191.02V199.795H65.1104V191.02Z" fill="#FAFAFA"/>
<path d="M73.0605 189.061C73.0605 188.142 73.0605 187.682 73.2091 187.319C73.4118 186.823 73.8049 186.43 74.3001 186.228C74.6633 186.079 75.123 186.079 76.0423 186.079C76.9617 186.079 77.4213 186.079 77.7845 186.228C78.2797 186.43 78.6728 186.823 78.8755 187.319C79.0241 187.682 79.0241 188.142 79.0241 189.061V199.795H73.0605V189.061Z" fill="#FAFAFA"/>
<path d="M81.012 186.122C81.012 185.202 81.012 184.743 81.1606 184.379C81.3632 183.884 81.7563 183.491 82.2515 183.288C82.6147 183.14 83.0744 183.14 83.9937 183.14C84.9131 183.14 85.3727 183.14 85.7359 183.288C86.2312 183.491 86.6243 183.884 86.8269 184.379C86.9755 184.743 86.9755 185.202 86.9755 186.122V199.795H81.012V186.122Z" fill="#FAFAFA"/>
<path d="M88.9612 184.162C88.9612 183.243 88.9612 182.783 89.1098 182.42C89.3124 181.925 89.7055 181.532 90.2008 181.329C90.5639 181.18 91.0236 181.18 91.9429 181.18C92.8623 181.18 93.322 181.18 93.6851 181.329C94.1804 181.532 94.5735 181.925 94.7761 182.42C94.9247 182.783 94.9247 183.243 94.9247 184.162V199.795H88.9612V184.162Z" fill="#FAFAFA"/>
<path d="M96.9119 186.122C96.9119 185.202 96.9119 184.743 97.0605 184.379C97.2631 183.884 97.6562 183.491 98.1514 183.288C98.5146 183.14 98.9743 183.14 99.8936 183.14C100.813 183.14 101.273 183.14 101.636 183.288C102.131 183.491 102.524 183.884 102.727 184.379C102.875 184.743 102.875 185.202 102.875 186.122V199.795H96.9119V186.122Z" fill="#FAFAFA"/>
<path d="M104.863 190.04C104.863 189.121 104.863 188.661 105.011 188.298C105.214 187.803 105.607 187.41 106.102 187.207C106.465 187.059 106.925 187.059 107.844 187.059C108.764 187.059 109.223 187.059 109.587 187.207C110.082 187.41 110.475 187.803 110.677 188.298C110.826 188.661 110.826 189.121 110.826 190.04V199.795H104.863V190.04Z" fill="#FAFAFA"/>
<path d="M112.813 183.182C112.813 182.263 112.813 181.803 112.962 181.44C113.164 180.945 113.558 180.552 114.053 180.349C114.416 180.201 114.876 180.201 115.795 180.201C116.714 180.201 117.174 180.201 117.537 180.349C118.032 180.552 118.426 180.945 118.628 181.44C118.777 181.803 118.777 182.263 118.777 183.182V199.795H112.813V183.182Z" fill="#FAFAFA"/>
<path d="M120.764 173.385C120.764 172.466 120.764 172.006 120.912 171.643C121.115 171.148 121.508 170.755 122.003 170.552C122.366 170.403 122.826 170.403 123.745 170.403C124.665 170.403 125.124 170.403 125.488 170.552C125.983 170.755 126.376 171.148 126.579 171.643C126.727 172.006 126.727 172.466 126.727 173.385V199.795H120.764V173.385Z" fill="#FAFAFA"/>
<path d="M128.714 169.466C128.714 168.547 128.714 168.087 128.862 167.724C129.065 167.229 129.458 166.836 129.953 166.633C130.317 166.484 130.776 166.484 131.696 166.484C132.615 166.484 133.075 166.484 133.438 166.633C133.933 166.836 134.326 167.229 134.529 167.724C134.677 168.087 134.677 168.547 134.677 169.466V199.795H128.714V169.466Z" fill="#FAFAFA"/>
<path d="M136.664 164.568C136.664 163.648 136.664 163.189 136.813 162.825C137.016 162.33 137.409 161.937 137.904 161.734C138.267 161.586 138.727 161.586 139.646 161.586C140.565 161.586 141.025 161.586 141.388 161.734C141.884 161.937 142.277 162.33 142.479 162.825C142.628 163.189 142.628 163.648 142.628 164.568V199.795H136.664V164.568Z" fill="#FAFAFA"/>
<path d="M144.615 148.892C144.615 147.973 144.615 147.513 144.764 147.15C144.966 146.655 145.359 146.262 145.855 146.059C146.218 145.91 146.677 145.91 147.597 145.91C148.516 145.91 148.976 145.91 149.339 146.059C149.834 146.262 150.227 146.655 150.43 147.15C150.579 147.513 150.579 147.973 150.579 148.892V199.795H144.615V148.892Z" fill="#FAFAFA"/>
<path d="M152.565 157.71C152.565 156.79 152.565 156.331 152.714 155.967C152.917 155.472 153.31 155.079 153.805 154.876C154.168 154.728 154.628 154.728 155.547 154.728C156.467 154.728 156.926 154.728 157.289 154.876C157.785 155.079 158.178 155.472 158.38 155.967C158.529 156.331 158.529 156.79 158.529 157.71V199.795H152.565V157.71Z" fill="#FAFAFA"/>
<path d="M160.516 162.608C160.516 161.689 160.516 161.229 160.665 160.866C160.868 160.371 161.261 159.978 161.756 159.775C162.119 159.626 162.579 159.626 163.498 159.626C164.417 159.626 164.877 159.626 165.24 159.775C165.736 159.978 166.129 160.371 166.331 160.866C166.48 161.229 166.48 161.689 166.48 162.608V199.795H160.516V162.608Z" fill="#FAFAFA"/>
<path d="M168.466 169.466C168.466 168.547 168.466 168.087 168.615 167.724C168.817 167.229 169.21 166.836 169.706 166.633C170.069 166.484 170.528 166.484 171.448 166.484C172.367 166.484 172.827 166.484 173.19 166.633C173.685 166.836 174.078 167.229 174.281 167.724C174.43 168.087 174.43 168.547 174.43 169.466V199.795H168.466V169.466Z" fill="#FAFAFA"/>
<path d="M176.417 178.284C176.417 177.365 176.417 176.905 176.565 176.542C176.768 176.046 177.161 175.653 177.656 175.451C178.019 175.302 178.479 175.302 179.398 175.302C180.318 175.302 180.777 175.302 181.14 175.451C181.636 175.653 182.029 176.046 182.231 176.542C182.38 176.905 182.38 177.365 182.38 178.284V199.795H176.417V178.284Z" fill="#FAFAFA"/>
<path d="M184.367 189.061C184.367 188.142 184.367 187.682 184.516 187.319C184.718 186.823 185.112 186.43 185.607 186.228C185.97 186.079 186.43 186.079 187.349 186.079C188.268 186.079 188.728 186.079 189.091 186.228C189.586 186.43 189.979 186.823 190.182 187.319C190.331 187.682 190.331 188.142 190.331 189.061V199.795H184.367V189.061Z" fill="#FAFAFA"/>
<path d="M192.318 186.122C192.318 185.202 192.318 184.743 192.467 184.379C192.669 183.884 193.062 183.491 193.558 183.288C193.921 183.14 194.381 183.14 195.3 183.14C196.219 183.14 196.679 183.14 197.042 183.288C197.537 183.491 197.93 183.884 198.133 184.379C198.282 184.743 198.282 185.202 198.282 186.122V199.795H192.318V186.122Z" fill="#FAFAFA"/>
<path d="M200.268 178.284C200.268 177.365 200.268 176.905 200.416 176.542C200.619 176.046 201.012 175.653 201.507 175.451C201.871 175.302 202.33 175.302 203.25 175.302C204.169 175.302 204.629 175.302 204.992 175.451C205.487 175.653 205.88 176.046 206.083 176.542C206.231 176.905 206.231 177.365 206.231 178.284V199.795H200.268V178.284Z" fill="#FAFAFA"/>
<path d="M208.218 184.162C208.218 183.243 208.218 182.783 208.367 182.42C208.57 181.925 208.963 181.532 209.458 181.329C209.821 181.18 210.281 181.18 211.2 181.18C212.119 181.18 212.579 181.18 212.942 181.329C213.437 181.532 213.831 181.925 214.033 182.42C214.182 182.783 214.182 183.243 214.182 184.162V199.795H208.218V184.162Z" fill="#FAFAFA"/>
<path d="M216.169 196.899C216.169 195.979 216.169 195.519 216.318 195.156C216.52 194.661 216.914 194.268 217.409 194.065C217.772 193.917 218.232 193.917 219.151 193.917C220.07 193.917 220.53 193.917 220.893 194.065C221.388 194.268 221.781 194.661 221.984 195.156C222.133 195.519 222.133 195.979 222.133 196.899V199.796H216.169V196.899Z" fill="#FAFAFA"/>
<path d="M224.12 196.899C224.12 195.979 224.12 195.519 224.268 195.156C224.471 194.661 224.864 194.268 225.359 194.065C225.723 193.917 226.182 193.917 227.102 193.917C228.021 193.917 228.481 193.917 228.844 194.065C229.339 194.268 229.732 194.661 229.935 195.156C230.083 195.519 230.083 195.979 230.083 196.899V199.796H224.12V196.899Z" fill="#FAFAFA"/>
<path d="M232.07 191.02C232.07 190.101 232.07 189.641 232.218 189.278C232.421 188.783 232.814 188.39 233.309 188.187C233.673 188.038 234.132 188.038 235.052 188.038C235.971 188.038 236.431 188.038 236.794 188.187C237.289 188.39 237.682 188.783 237.885 189.278C238.033 189.641 238.033 190.101 238.033 191.02V199.795H232.07V191.02Z" fill="#FAFAFA"/>
<path d="M240.02 179.264C240.02 178.344 240.02 177.884 240.169 177.521C240.371 177.026 240.764 176.633 241.26 176.43C241.623 176.282 242.082 176.282 243.002 176.282C243.921 176.282 244.381 176.282 244.744 176.43C245.239 176.633 245.632 177.026 245.835 177.521C245.984 177.884 245.984 178.344 245.984 179.264V199.795H240.02V179.264Z" fill="#FAFAFA"/>
<path d="M247.971 175.345C247.971 174.425 247.971 173.966 248.12 173.602C248.322 173.107 248.715 172.714 249.211 172.511C249.574 172.363 250.033 172.363 250.953 172.363C251.872 172.363 252.332 172.363 252.695 172.511C253.19 172.714 253.583 173.107 253.786 173.602C253.934 173.966 253.934 174.425 253.934 175.345V199.795H247.971V175.345Z" fill="#FAFAFA"/>
<path d="M255.921 171.426C255.921 170.507 255.921 170.047 256.07 169.684C256.272 169.188 256.665 168.795 257.161 168.593C257.524 168.444 257.984 168.444 258.903 168.444C259.822 168.444 260.282 168.444 260.645 168.593C261.14 168.795 261.533 169.188 261.736 169.684C261.885 170.047 261.885 170.507 261.885 171.426V199.795H255.921V171.426Z" fill="#FAFAFA"/>
<path d="M263.872 169.466C263.872 168.547 263.872 168.087 264.02 167.724C264.223 167.229 264.616 166.836 265.111 166.633C265.474 166.484 265.934 166.484 266.853 166.484C267.773 166.484 268.232 166.484 268.596 166.633C269.091 166.836 269.484 167.229 269.687 167.724C269.835 168.087 269.835 168.547 269.835 169.466V199.795H263.872V169.466Z" fill="#FAFAFA"/>
<path d="M271.823 173.385C271.823 172.466 271.823 172.006 271.971 171.643C272.174 171.148 272.567 170.755 273.062 170.552C273.425 170.403 273.885 170.403 274.804 170.403C275.724 170.403 276.183 170.403 276.546 170.552C277.042 170.755 277.435 171.148 277.637 171.643C277.786 172.006 277.786 172.466 277.786 173.385V199.795H271.823V173.385Z" fill="#FAFAFA"/>
<path d="M279.773 166.527C279.773 165.608 279.773 165.148 279.922 164.785C280.124 164.29 280.518 163.897 281.013 163.694C281.376 163.545 281.836 163.545 282.755 163.545C283.674 163.545 284.134 163.545 284.497 163.694C284.992 163.897 285.385 164.29 285.588 164.785C285.737 165.148 285.737 165.608 285.737 166.527V199.795H279.773V166.527Z" fill="#FAFAFA"/>
<path d="M287.723 162.608C287.723 161.689 287.723 161.229 287.872 160.866C288.074 160.371 288.467 159.978 288.963 159.775C289.326 159.627 289.786 159.627 290.705 159.627C291.624 159.627 292.084 159.627 292.447 159.775C292.942 159.978 293.335 160.371 293.538 160.866C293.687 161.229 293.687 161.689 293.687 162.608V199.795H287.723V162.608Z" fill="#FAFAFA"/>
</svg>
