<svg width="75" height="43" viewBox="0 0 75 43" fill="none" xmlns="http://www.w3.org/2000/svg">
<g filter="url(#filter0_d_0_1066)">
<path d="M7.5 25.3341L8.33333 26.5582C9.16667 27.7823 10.8333 30.2306 12.5 29.2895C14.1667 28.3484 15.8333 24.0181 17.5 20.6728C19.1667 17.3276 20.8333 14.9675 22.5 16.0049C24.1667 17.0422 25.8333 21.477 27.5 23.7266C29.1667 25.9762 30.8333 26.0405 32.5 23.2434C34.1667 20.4464 35.8333 14.788 37.5 12.2578C39.1667 9.72761 40.8333 10.3257 42.5 9.744C44.1667 9.1623 45.8333 7.40082 47.5 7.34579C49.1667 7.29076 50.8333 8.94218 52.5 9.14938C54.1667 9.35657 55.8333 8.11954 57.5 8.80603C59.1667 9.49253 60.8333 12.1026 62.5 11.0388C64.1667 9.97506 65.8333 5.23753 66.6667 2.86876L67.5 0.5" stroke="#19AF00" stroke-width="1.5"/>
</g>
<defs>
<filter id="filter0_d_0_1066" x="0.880024" y="0.251099" width="73.3275" height="42.0021" filterUnits="userSpaceOnUse" color-interpolation-filters="sRGB">
<feFlood flood-opacity="0" result="BackgroundImageFix"/>
<feColorMatrix in="SourceAlpha" type="matrix" values="0 0 0 0 0 0 0 0 0 0 0 0 0 0 0 0 0 0 127 0" result="hardAlpha"/>
<feOffset dy="6"/>
<feGaussianBlur stdDeviation="3"/>
<feComposite in2="hardAlpha" operator="out"/>
<feColorMatrix type="matrix" values="0 0 0 0 0.0980392 0 0 0 0 0.686275 0 0 0 0 0 0 0 0 0.2 0"/>
<feBlend mode="normal" in2="BackgroundImageFix" result="effect1_dropShadow_0_1066"/>
<feBlend mode="normal" in="SourceGraphic" in2="effect1_dropShadow_0_1066" result="shape"/>
</filter>
</defs>
</svg>
