<?xml version="1.0" encoding="iso-8859-1"?>
<!-- Uploaded to: SVG Repo, www.svgrepo.com, Generator: SVG Repo Mixer Tools -->
<!DOCTYPE svg PUBLIC "-//W3C//DTD SVG 1.1//EN" "http://www.w3.org/Graphics/SVG/1.1/DTD/svg11.dtd">
<svg fill="#000000" height="800px" width="800px" version="1.1" id="Capa_1" xmlns="http://www.w3.org/2000/svg" xmlns:xlink="http://www.w3.org/1999/xlink" 
	 viewBox="0 0 470 470" xml:space="preserve">
<g>
	<path d="M401.17,68.83C356.785,24.444,297.771,0,235,0S113.215,24.444,68.83,68.83C24.444,113.216,0,172.229,0,235
		s24.444,121.784,68.83,166.17C113.215,445.556,172.229,470,235,470s121.785-24.444,166.17-68.83
		C445.556,356.784,470,297.771,470,235S445.556,113.216,401.17,68.83z M235,455c-121.309,0-220-98.691-220-220S113.691,15,235,15
		s220,98.691,220,220S356.309,455,235,455z"/>
	<path d="M235,25C119.206,25,25,119.206,25,235s94.206,210,210,210s210-94.206,210-210S350.794,25,235,25z M235,430
		c-107.523,0-195-87.477-195-195S127.477,40,235,40s195,87.477,195,195S342.523,430,235,430z"/>
	<path d="M216.925,90.178c-0.151,0.003-0.301,0.01-0.451,0.022c-0.109,0.009-0.217,0.021-0.325,0.034
		c-0.128,0.016-0.254,0.035-0.38,0.058c-0.124,0.022-0.246,0.046-0.368,0.074c-0.109,0.025-0.217,0.054-0.326,0.084
		c-0.129,0.036-0.257,0.074-0.383,0.116c-0.103,0.035-0.204,0.073-0.305,0.112c-0.122,0.047-0.244,0.096-0.363,0.149
		c-0.107,0.047-0.212,0.1-0.317,0.152c-0.106,0.054-0.211,0.108-0.314,0.167c-0.114,0.064-0.226,0.134-0.337,0.205
		c-0.088,0.057-0.176,0.113-0.262,0.173c-0.116,0.082-0.229,0.167-0.341,0.255c-0.077,0.061-0.153,0.121-0.227,0.185
		c-0.109,0.093-0.214,0.189-0.318,0.289c-0.074,0.071-0.147,0.143-0.218,0.216c-0.092,0.096-0.181,0.194-0.269,0.296
		c-0.079,0.091-0.156,0.185-0.231,0.281c-0.07,0.089-0.138,0.18-0.205,0.274c-0.085,0.119-0.166,0.241-0.244,0.366
		c-0.03,0.048-0.064,0.091-0.093,0.14l-18.722,31.365c-2.123,3.557-0.961,8.161,2.596,10.284c1.205,0.719,2.529,1.061,3.837,1.061
		c2.554,0,5.043-1.305,6.447-3.657l4.782-8.011V237.39c0,4.143,3.358,7.5,7.5,7.5h35.826c4.142,0,7.5-3.357,7.5-7.5V97.67
		c0-4.143-3.358-7.5-7.5-7.5h-35.826C217.032,90.17,216.979,90.177,216.925,90.178z M224.587,105.17h20.826v124.72h-20.826V105.17z"
		/>
	<path d="M304.274,361.166c1.968,0,3.935-0.771,5.407-2.301c2.871-2.985,2.779-7.733-0.207-10.604
		c-5.138-4.941-10.703-9.311-16.605-13.094v-48.659c0-4.143-3.358-7.5-7.5-7.5s-7.5,3.357-7.5,7.5v40.657
		c-5.298-2.305-10.784-4.19-16.427-5.616c0.91-4.028,1.427-8.25,1.427-12.562c0-7.809-1.684-15.328-4.372-21.917l12.326-18.627
		c2.286-3.454,1.338-8.107-2.116-10.394c-3.454-2.286-8.108-1.339-10.394,2.116l-8.362,12.638
		c-4.722-5.476-10.093-8.796-14.95-8.796c-4.858,0-10.228,3.32-14.95,8.796l-8.363-12.638c-2.287-3.455-6.94-4.402-10.394-2.116
		c-3.455,2.286-4.402,6.939-2.116,10.394l12.326,18.627c-2.688,6.589-4.372,14.108-4.372,21.917c0,4.311,0.517,8.533,1.427,12.562
		c-5.643,1.425-11.129,3.311-16.427,5.616v-40.657c0-4.143-3.358-7.5-7.5-7.5s-7.5,3.357-7.5,7.5v48.659
		c-5.902,3.784-11.467,8.153-16.604,13.094c-2.986,2.871-3.078,7.619-0.207,10.604c1.473,1.53,3.438,2.301,5.407,2.301
		c1.87,0,3.744-0.695,5.198-2.095c10.357-9.96,22.696-17.263,36.177-21.515l-7.924,11.975c-2.286,3.454-1.338,8.107,2.116,10.394
		c1.274,0.843,2.71,1.246,4.132,1.246c2.433,0,4.819-1.182,6.262-3.362l8.362-12.638c4.722,5.475,10.093,8.796,14.951,8.796
		c4.857,0,10.228-3.32,14.95-8.796l8.362,12.638c1.443,2.181,3.829,3.362,6.262,3.362c1.421,0,2.858-0.403,4.132-1.246
		c3.455-2.286,4.402-6.939,2.116-10.394l-7.924-11.975c13.481,4.252,25.821,11.555,36.178,21.515
		C300.531,360.471,302.403,361.166,304.274,361.166z M235,279.207c3.171,1.782,9.992,10.374,12.177,22.28h-24.354
		C225.007,289.581,231.829,280.989,235,279.207z M235,338.768c-3.171-1.782-9.993-10.374-12.177-22.28h24.354
		C244.992,328.394,238.171,336.986,235,338.768z"/>
	<path d="M90.5,242.5c4.142,0,7.5-3.357,7.5-7.5s-3.358-7.5-7.5-7.5H60.754c-4.142,0-7.5,3.357-7.5,7.5s3.358,7.5,7.5,7.5H90.5z"/>
	<path d="M409.246,227.5H379.5c-4.142,0-7.5,3.357-7.5,7.5s3.358,7.5,7.5,7.5h29.746c4.142,0,7.5-3.357,7.5-7.5
		S413.388,227.5,409.246,227.5z"/>
	<path d="M328.68,97.045c33.833,23.024,57.971,57.426,67.964,96.865c0.86,3.397,3.913,5.66,7.265,5.66
		c0.609,0,1.229-0.075,1.848-0.231c4.015-1.018,6.445-5.098,5.428-9.112c-10.895-42.997-37.198-80.494-74.066-105.582
		c-3.424-2.331-8.089-1.443-10.42,1.98C324.369,90.05,325.255,94.715,328.68,97.045z"/>
	<path d="M64.243,199.339c0.619,0.156,1.238,0.231,1.848,0.231c3.351,0,6.404-2.263,7.265-5.66
		c17.426-68.77,76.614-119.023,147.282-125.05c4.127-0.352,7.188-3.982,6.835-8.11c-0.352-4.127-3.982-7.185-8.11-6.835
		C142.329,60.483,77.81,115.263,58.815,190.227C57.798,194.241,60.228,198.321,64.243,199.339z"/>
	<path d="M249.363,68.86c18.841,1.606,37.105,6.361,54.285,14.133c1.003,0.454,2.053,0.669,3.087,0.669
		c2.855,0,5.584-1.64,6.838-4.411c1.707-3.773,0.032-8.217-3.742-9.924c-18.736-8.476-38.651-13.661-59.193-15.412
		c-4.134-0.343-7.758,2.708-8.11,6.836C242.175,64.878,245.236,68.509,249.363,68.86z"/>
	<path d="M405.757,270.661c-4.015-1.019-8.096,1.413-9.112,5.429C377.897,350.076,311.426,401.75,235,401.75
		c-26.908,0-52.598-6.218-76.357-18.48c-3.681-1.898-8.205-0.456-10.104,3.226c-1.9,3.681-0.456,8.204,3.225,10.104
		c25.542,13.183,54.325,20.15,83.237,20.15c83.299,0,155.749-56.326,176.185-136.977
		C412.202,275.759,409.772,271.679,405.757,270.661z"/>
	<path d="M134.356,367.959c-30.11-22.831-51.774-55.458-61.001-91.869c-1.017-4.015-5.094-6.445-9.112-5.429
		c-4.015,1.018-6.445,5.098-5.428,9.112c10.058,39.696,33.667,75.26,66.479,100.139c1.355,1.027,2.947,1.523,4.526,1.523
		c2.267,0,4.506-1.023,5.981-2.969C138.304,375.166,137.657,370.462,134.356,367.959z"/>
</g>
</svg>