<svg width="74" height="43" viewBox="0 0 74 43" fill="none" xmlns="http://www.w3.org/2000/svg">
<g filter="url(#filter0_d_0_1001)">
<path d="M6.5 24.1784L7.40909 23.3802C8.31818 22.582 10.1364 20.9856 11.9545 19.8673C13.7727 18.749 15.5909 18.1088 17.4091 20.7695C19.2273 23.4303 21.0455 29.392 22.8636 29.4985C24.6818 29.6051 26.5 23.8564 28.3182 20.4574C30.1364 17.0583 31.9545 16.0089 33.7727 14.6625C35.5909 13.316 37.4091 11.6726 39.2273 10.3306C41.0455 8.98855 42.8636 7.94784 44.6818 10.8913C46.5 13.8347 48.3182 20.7623 50.1364 20.8304C51.9545 20.8986 53.7727 14.1073 55.5909 13.6882C57.4091 13.2691 59.2273 19.2222 61.0455 18.0862C62.8636 16.9502 64.6818 8.72508 65.5909 4.61254L66.5 0.5" stroke="#19AF00" stroke-width="1.5"/>
</g>
<defs>
<filter id="filter0_d_0_1001" x="0.00515747" y="0.33812" width="73.2272" height="41.912" filterUnits="userSpaceOnUse" color-interpolation-filters="sRGB">
<feFlood flood-opacity="0" result="BackgroundImageFix"/>
<feColorMatrix in="SourceAlpha" type="matrix" values="0 0 0 0 0 0 0 0 0 0 0 0 0 0 0 0 0 0 127 0" result="hardAlpha"/>
<feOffset dy="6"/>
<feGaussianBlur stdDeviation="3"/>
<feComposite in2="hardAlpha" operator="out"/>
<feColorMatrix type="matrix" values="0 0 0 0 0.0980392 0 0 0 0 0.686275 0 0 0 0 0 0 0 0 0.2 0"/>
<feBlend mode="normal" in2="BackgroundImageFix" result="effect1_dropShadow_0_1001"/>
<feBlend mode="normal" in="SourceGraphic" in2="effect1_dropShadow_0_1001" result="shape"/>
</filter>
</defs>
</svg>
